<?xml version="1.0" encoding="UTF-8" standalone="no"?>
<!-- Created with Inkscape (http://www.inkscape.org/) -->

<svg
   xmlns:dc="http://purl.org/dc/elements/1.1/"
   xmlns:cc="http://creativecommons.org/ns#"
   xmlns:rdf="http://www.w3.org/1999/02/22-rdf-syntax-ns#"
   xmlns:svg="http://www.w3.org/2000/svg"
   xmlns="http://www.w3.org/2000/svg"
   xmlns:sodipodi="http://sodipodi.sourceforge.net/DTD/sodipodi-0.dtd"
   xmlns:inkscape="http://www.inkscape.org/namespaces/inkscape"
   width="128.38968mm"
   height="52.3955mm"
   viewBox="0 0 128.38968 52.3955"
   version="1.1"
   id="svg1478"
   inkscape:version="0.92.4 5da689c313, 2019-01-14"
   sodipodi:docname="etalogga.svg">
  <defs
     id="defs1472" />
  <sodipodi:namedview
     id="base"
     pagecolor="#ffffff"
     bordercolor="#666666"
     borderopacity="1.0"
     inkscape:pageopacity="0.0"
     inkscape:pageshadow="2"
     inkscape:zoom="2.8"
     inkscape:cx="224.85407"
     inkscape:cy="122.52312"
     inkscape:document-units="mm"
     inkscape:current-layer="layer1"
     showgrid="true"
     inkscape:window-width="1920"
     inkscape:window-height="1080"
     inkscape:window-x="0"
     inkscape:window-y="0"
     inkscape:window-maximized="0">
    <inkscape:grid
       type="xygrid"
       id="grid823"
       originx="-33.32302"
       originy="-199.30206" />
  </sodipodi:namedview>
  <metadata
     id="metadata1475">
    <rdf:RDF>
      <cc:Work
         rdf:about="">
        <dc:format>image/svg+xml</dc:format>
        <dc:type
           rdf:resource="http://purl.org/dc/dcmitype/StillImage" />
        <dc:title />
      </cc:Work>
    </rdf:RDF>
  </metadata>
  <g
     inkscape:label="Layer 1"
     inkscape:groupmode="layer"
     id="layer1"
     transform="translate(-33.323019,-45.302428)">
    <path
       style="display:inline;fill:#000000;fill-opacity:1;stroke:#000000;stroke-width:0.09914549;stroke-linecap:round;stroke-linejoin:round;stroke-miterlimit:4;stroke-dasharray:none;stroke-opacity:1"
       d="m 33.372592,97.211579 v -0.436428 l 2.301509,-0.03591 c 2.142272,-0.03343 2.335752,-0.05153 2.796456,-0.261476 0.960946,-0.437923 1.676141,-1.376254 2.093419,-2.746552 0.169924,-0.558012 0.180404,-1.687801 0.207421,-22.360049 0.03212,-24.579358 0.105053,-22.356308 -0.761862,-23.223223 -0.82417,-0.82417 -2.033247,-1.13241 -4.879877,-1.244069 l -1.757066,-0.06892 v -0.566511 -0.56651 l 7.547958,-0.06014 c 4.151376,-0.03308 17.6152,-0.08306 29.919608,-0.111077 12.304409,-0.02801 27.772773,-0.07968 34.374142,-0.114823 l 12.00249,-0.06389 v 6.052878 6.052877 h -0.63086 -0.63085 l -0.16514,-0.915654 c -0.80605,-4.469326 -2.86288,-7.017581 -6.17931,-7.655673 -0.56663,-0.109022 -1.83593,-0.139759 -5.77141,-0.139759 h -5.045033 l 0.05602,21.208524 c 0.03081,11.664689 0.0792,21.773349 0.107529,22.463689 0.09078,2.212166 0.551942,3.148648 1.879314,3.816274 0.79514,0.399936 1.36443,0.466637 4.00604,0.469368 2.14341,0.0021 2.62877,-0.02495 3.21716,-0.180105 1.14121,-0.300918 2.05505,-0.804492 2.79965,-1.542738 1.44264,-1.430348 0.96017,-0.128011 12.15974,-26.511332 l 9.80119,-23.0891 c 0.43759,0 1.94366,0 2.38125,0 l 9.42846,22.396172 c 5.46179,12.916909 10.09966,23.851781 10.30641,24.29972 0.80737,1.749232 1.91699,3.013088 3.19178,3.63542 0.87762,0.428437 1.55577,0.605697 2.6734,0.698796 l 0.86099,0.07172 v 0.582229 0.582229 h -10.00337 -10.00338 l 0.0302,-0.470199 0.0302,-0.470202 0.83054,-0.06881 c 2.01486,-0.166947 3.84453,-1.127353 4.37561,-2.296801 0.11252,-0.247734 0.18527,-0.636092 0.1866,-0.995897 0.002,-0.541758 -0.20143,-1.100116 -2.49731,-6.854306 l -2.49949,-6.2645 -10.19018,0.02402 -10.19018,0.02402 -1.52031,3.514133 c -4.27599,9.883767 -3.91045,8.974375 -3.96164,9.855726 -0.0391,0.672627 -0.0139,0.861695 0.15966,1.201986 0.60228,1.180577 2.02745,1.693239 5.18706,1.865898 l 1.16313,0.06356 v 0.435689 0.435687 H 103.50673 84.25325 v -0.445452 -0.445453 l 1.361107,-0.0019 c 1.838021,-0.0026 2.592895,-0.121449 3.455535,-0.543825 1.198364,-0.586756 2.012677,-1.669108 2.358088,-3.134275 0.128429,-0.544777 0.147765,-3.480144 0.149037,-22.626428 l 0.0016,-22.000442 h -4.048085 c -4.348647,0 -5.538026,0.07484 -6.972467,0.438713 -3.591912,0.911163 -5.684181,3.547864 -5.896599,7.430961 l -0.05957,1.088886 -0.618686,0.02947 -0.618683,0.02947 v -0.443013 c 0,-1.322403 -0.42872,-3.130569 -1.035521,-4.367429 -1.030039,-2.099479 -2.682788,-3.401286 -5.195851,-4.092511 l -0.945385,-0.26003 -8.884316,-0.02973 -8.884317,-0.02973 v 10.496407 10.496407 l 6.162103,-9e-4 c 6.204291,-8.99e-4 7.817416,-0.063 9.181285,-0.353693 2.096178,-0.446783 3.412482,-1.665462 4.054213,-3.753529 0.249386,-0.811458 0.497893,-2.352866 0.498727,-3.093425 l 5.29e-4,-0.519651 h 0.494948 0.494948 v 8.958559 8.958563 l -0.470199,-2.65e-4 -0.470202,-2.65e-4 -0.0099,-1.261721 c -0.01082,-1.375074 -0.168256,-2.168869 -0.602205,-3.036467 -1.01242,-2.024152 -2.86498,-3.0729 -5.871678,-3.324002 -0.62611,-0.05229 -3.911328,-0.09578 -7.300485,-0.09664 l -6.162103,-0.0016 v 10.869422 10.869419 l 0.244272,0.490189 c 0.272991,0.547822 0.783039,0.935884 1.587036,1.207476 0.442524,0.149484 1.244469,0.170558 7.57132,0.198959 7.72958,0.0347 8.316576,0.0033 10.034741,-0.537597 3.597455,-1.132414 6.319367,-3.885903 8.546232,-8.645387 l 0.625256,-1.336357 0.601747,-0.02969 c 0.587912,-0.029 0.600101,-0.02445 0.530251,0.19798 -0.03932,0.125217 -1.017868,3.011747 -2.174549,6.414513 l -2.103105,6.186869 -20.254835,0.02498 -20.254834,0.02498 z M 140.8753,77.595585 c 0,-0.07454 -8.40668,-20.827558 -8.53307,-21.065035 -0.083,-0.156014 -0.11911,-0.163719 -0.23173,-0.0495 -0.0976,0.09902 -7.66492,17.054824 -9.26057,20.749873 l -0.18168,0.420711 h 9.10353 c 5.00694,0 9.10352,-0.02521 9.10352,-0.05605 z"
       id="path5412"
       inkscape:connector-curvature="0"
       sodipodi:nodetypes="ccccsssscccssscccccssscssccccscccccsccccccccccscccsccsccccccccscccscccccscscccccccccccccccccccccccccscccccccccccccccscc" />
  </g>
</svg>
